<svg xmlns="http://www.w3.org/2000/svg" xmlns:svg="http://www.w3.org/2000/svg" id="svg2" width="744.094" height="1052.362" version="1.1"><metadata id="metadata7"/><g id="layer1"><g id="g3842"><g style="fill:#fff;fill-opacity:1" id="g3834"><path id="path3836" d="M 59.542972,52.890899 6.3214751,64.899805 -21.54602,17.99411 14.452417,-23.00411 64.56817,-1.4367087 z" transform="matrix(0.51100073,-0.85958028,0.85958028,0.51100073,371.06532,449.31268)" style="fill:#fff;fill-opacity:1;stroke:none"/><path style="fill:#fff;fill-opacity:1;stroke:none" id="path3838" d="M 59.542972,52.890899 6.3214751,64.899805 -21.54602,17.99411 14.452417,-23.00411 64.56817,-1.4367087 z" transform="matrix(0.97498542,0.22226883,-0.22226883,0.97498542,375.00542,438.76028)"/><path id="path3840" d="M 59.542972,52.890899 6.3214751,64.899805 -21.54602,17.99411 14.452417,-23.00411 64.56817,-1.4367087 z" transform="matrix(0.97511904,0.2216819,-0.2216819,0.97511904,347.36882,438.6358)" style="fill:#fff;fill-opacity:1;stroke:none"/></g><g id="g3817"><path style="fill:#ff005b;fill-opacity:.90588235;stroke:none" id="path3020" d="M 59.542972,52.890899 6.3214751,64.899805 -21.54602,17.99411 14.452417,-23.00411 64.56817,-1.4367087 z" transform="matrix(0.51100073,-0.85958028,0.85958028,0.51100073,371.06532,449.31268)"/><path id="path3022" d="M 59.542972,52.890899 6.3214751,64.899805 -21.54602,17.99411 14.452417,-23.00411 64.56817,-1.4367087 z" transform="matrix(0.97498542,0.22226883,-0.22226883,0.97498542,375.00542,438.76028)" style="fill:#ffc200;fill-opacity:.67843137;stroke:none"/><path style="fill:#00fbff;fill-opacity:.56862955;stroke:none" id="path3024" d="M 59.542972,52.890899 6.3214751,64.899805 -21.54602,17.99411 14.452417,-23.00411 64.56817,-1.4367087 z" transform="matrix(0.97511904,0.2216819,-0.2216819,0.97511904,347.36882,438.6358)"/></g></g><g id="g3822" transform="translate(223.57425,-4.6097783)" style="fill:#000;fill-opacity:1"><path style="fill:#000;fill-opacity:1;stroke:none" id="path3824" d="M 59.542972,52.890899 6.3214751,64.899805 -21.54602,17.99411 14.452417,-23.00411 64.56817,-1.4367087 z" transform="matrix(0.51100073,-0.85958028,0.85958028,0.51100073,371.06532,449.31268)"/><path id="path3826" d="M 59.542972,52.890899 6.3214751,64.899805 -21.54602,17.99411 14.452417,-23.00411 64.56817,-1.4367087 z" transform="matrix(0.97498542,0.22226883,-0.22226883,0.97498542,375.00542,438.76028)" style="fill:#000;fill-opacity:1;stroke:none"/><path style="fill:#000;fill-opacity:1;stroke:none" id="path3828" d="M 59.542972,52.890899 6.3214751,64.899805 -21.54602,17.99411 14.452417,-23.00411 64.56817,-1.4367087 z" transform="matrix(0.97511904,0.2216819,-0.2216819,0.97511904,347.36882,438.6358)"/></g><rect style="fill:#e6e6e6;fill-opacity:1;stroke:none" id="rect3830" width="150.394" height="150.394" x="95.077" y="405.841"/><g id="g3852" transform="translate(-214.35469,31.692226)"><g id="g3854" style="fill:#fff;fill-opacity:1"><path style="fill:#fff;fill-opacity:1;stroke:none" id="path3856" d="M 59.542972,52.890899 6.3214751,64.899805 -21.54602,17.99411 14.452417,-23.00411 64.56817,-1.4367087 z" transform="matrix(0.51100073,-0.85958028,0.85958028,0.51100073,371.06532,449.31268)"/><path id="path3858" d="M 59.542972,52.890899 6.3214751,64.899805 -21.54602,17.99411 14.452417,-23.00411 64.56817,-1.4367087 z" transform="matrix(0.97498542,0.22226883,-0.22226883,0.97498542,375.00542,438.76028)" style="fill:#fff;fill-opacity:1;stroke:none"/><path style="fill:#fff;fill-opacity:1;stroke:none" id="path3860" d="M 59.542972,52.890899 6.3214751,64.899805 -21.54602,17.99411 14.452417,-23.00411 64.56817,-1.4367087 z" transform="matrix(0.97511904,0.2216819,-0.2216819,0.97511904,347.36882,438.6358)"/></g><g id="g3862"><path id="path3864" d="M 59.542972,52.890899 6.3214751,64.899805 -21.54602,17.99411 14.452417,-23.00411 64.56817,-1.4367087 z" transform="matrix(0.51100073,-0.85958028,0.85958028,0.51100073,371.06532,449.31268)" style="fill:#ff005b;fill-opacity:.90588235;stroke:none"/><path style="fill:#ffc200;fill-opacity:.67843137;stroke:none" id="path3866" d="M 59.542972,52.890899 6.3214751,64.899805 -21.54602,17.99411 14.452417,-23.00411 64.56817,-1.4367087 z" transform="matrix(0.97498542,0.22226883,-0.22226883,0.97498542,375.00542,438.76028)"/><path id="path3868" d="M 59.542972,52.890899 6.3214751,64.899805 -21.54602,17.99411 14.452417,-23.00411 64.56817,-1.4367087 z" transform="matrix(0.97511904,0.2216819,-0.2216819,0.97511904,347.36882,438.6358)" style="fill:#00fbff;fill-opacity:.56862955;stroke:none"/></g></g><g id="g3890"><rect style="fill:#4d4d4d;fill-opacity:0;stroke:none" id="rect3870" width="150.394" height="150.394" x="347.462" y="554.506"/><g id="g3872" transform="translate(38.030674,180.35758)"><g id="g3874" style="fill:#fff;fill-opacity:1"><path style="fill:#fff;fill-opacity:1;stroke:none" id="path3876" d="M 59.542972,52.890899 6.3214751,64.899805 -21.54602,17.99411 14.452417,-23.00411 64.56817,-1.4367087 z" transform="matrix(0.51100073,-0.85958028,0.85958028,0.51100073,371.06532,449.31268)"/><path id="path3878" d="M 59.542972,52.890899 6.3214751,64.899805 -21.54602,17.99411 14.452417,-23.00411 64.56817,-1.4367087 z" transform="matrix(0.97498542,0.22226883,-0.22226883,0.97498542,375.00542,438.76028)" style="fill:#fff;fill-opacity:1;stroke:none"/><path style="fill:#fff;fill-opacity:1;stroke:none" id="path3880" d="M 59.542972,52.890899 6.3214751,64.899805 -21.54602,17.99411 14.452417,-23.00411 64.56817,-1.4367087 z" transform="matrix(0.97511904,0.2216819,-0.2216819,0.97511904,347.36882,438.6358)"/></g><g id="g3882"><path id="path3884" d="M 59.542972,52.890899 6.3214751,64.899805 -21.54602,17.99411 14.452417,-23.00411 64.56817,-1.4367087 z" transform="matrix(0.51100073,-0.85958028,0.85958028,0.51100073,371.06532,449.31268)" style="fill:#ff005b;fill-opacity:.90588235;stroke:none"/><path style="fill:#ffc200;fill-opacity:.67843137;stroke:none" id="path3886" d="M 59.542972,52.890899 6.3214751,64.899805 -21.54602,17.99411 14.452417,-23.00411 64.56817,-1.4367087 z" transform="matrix(0.97498542,0.22226883,-0.22226883,0.97498542,375.00542,438.76028)"/><path id="path3888" d="M 59.542972,52.890899 6.3214751,64.899805 -21.54602,17.99411 14.452417,-23.00411 64.56817,-1.4367087 z" transform="matrix(0.97511904,0.2216819,-0.2216819,0.97511904,347.36882,438.6358)" style="fill:#00fbff;fill-opacity:.56862955;stroke:none"/></g></g></g><g id="g3922"><rect style="fill:#fff;fill-opacity:1;stroke:none" id="rect3902" width="150.394" height="150.394" x="94.5" y="595.418"/><g id="g3904" transform="translate(-214.93091,221.26936)"><g id="g3906" style="fill:#fff;fill-opacity:1"><path style="fill:#fff;fill-opacity:1;stroke:none" id="path3908" d="M 59.542972,52.890899 6.3214751,64.899805 -21.54602,17.99411 14.452417,-23.00411 64.56817,-1.4367087 z" transform="matrix(0.51100073,-0.85958028,0.85958028,0.51100073,371.06532,449.31268)"/><path id="path3910" d="M 59.542972,52.890899 6.3214751,64.899805 -21.54602,17.99411 14.452417,-23.00411 64.56817,-1.4367087 z" transform="matrix(0.97498542,0.22226883,-0.22226883,0.97498542,375.00542,438.76028)" style="fill:#fff;fill-opacity:1;stroke:none"/><path style="fill:#fff;fill-opacity:1;stroke:none" id="path3912" d="M 59.542972,52.890899 6.3214751,64.899805 -21.54602,17.99411 14.452417,-23.00411 64.56817,-1.4367087 z" transform="matrix(0.97511904,0.2216819,-0.2216819,0.97511904,347.36882,438.6358)"/></g><g id="g3914"><path id="path3916" d="M 59.542972,52.890899 6.3214751,64.899805 -21.54602,17.99411 14.452417,-23.00411 64.56817,-1.4367087 z" transform="matrix(0.51100073,-0.85958028,0.85958028,0.51100073,371.06532,449.31268)" style="fill:#ff005b;fill-opacity:.90588235;stroke:none"/><path style="fill:#ffc200;fill-opacity:.67843137;stroke:none" id="path3918" d="M 59.542972,52.890899 6.3214751,64.899805 -21.54602,17.99411 14.452417,-23.00411 64.56817,-1.4367087 z" transform="matrix(0.97498542,0.22226883,-0.22226883,0.97498542,375.00542,438.76028)"/><path id="path3920" d="M 59.542972,52.890899 6.3214751,64.899805 -21.54602,17.99411 14.452417,-23.00411 64.56817,-1.4367087 z" transform="matrix(0.97511904,0.2216819,-0.2216819,0.97511904,347.36882,438.6358)" style="fill:#00fbff;fill-opacity:.56862955;stroke:none"/></g></g></g></g></svg>